HIERARCHY
ROOT newVegas:Hips
{
	OFFSET 0.000000 96.479958 0.000000
	CHANNELS 6 Xposition Yposition Zposition Xrotation Yrotation Zrotation
	JOINT newVegas:Pelvis
	{
		OFFSET 0.000000 0.000000 0.000000
		CHANNELS 3 Xrotation Yrotation Zrotation
		JOINT newVegas:LeftUpLeg
		{
			OFFSET 18.735201 -5.666702 -4.541200
			CHANNELS 3 Xrotation Yrotation Zrotation
			JOINT newVegas:LeftLeg
			{
				OFFSET -0.021200 -31.938179 0.493100
				CHANNELS 3 Xrotation Yrotation Zrotation
				JOINT newVegas:LeftFoot
				{
					OFFSET 0.021200 -31.938179 -4.336299
					CHANNELS 3 Xrotation Yrotation Zrotation
					JOINT newVegas:LeftToeBase
					{
						OFFSET 0.943001 -26.722000 15.023500
						CHANNELS 3 Xrotation Yrotation Zrotation
						End Site
						{
							OFFSET 0.000000 30.670183 0.000000
						}
					}
				}
				JOINT newVegas:Left_PantLeg
				{
					OFFSET 0.663870 -9.044666 -1.108900
					CHANNELS 3 Xrotation Yrotation Zrotation
					End Site
					{
						OFFSET 1.415995 20.635357 0.000000
					}
				}
			}
		}
		JOINT newVegas:RightUpLeg
		{
			OFFSET -18.735201 -5.666702 -4.541200
			CHANNELS 3 Xrotation Yrotation Zrotation
			JOINT newVegas:RightLeg
			{
				OFFSET 0.018946 -31.938133 0.493100
				CHANNELS 3 Xrotation Yrotation Zrotation
				JOINT newVegas:RightFoot
				{
					OFFSET -0.018946 -31.938126 -4.336299
					CHANNELS 3 Xrotation Yrotation Zrotation
					JOINT newVegas:RightToeBase
					{
						OFFSET -0.943001 -26.722004 15.023500
						CHANNELS 3 Xrotation Yrotation Zrotation
						End Site
						{
							OFFSET 0.000000 30.670187 0.000000
						}
					}
				}
				JOINT newVegas:Right_PantLeg
				{
					OFFSET -0.661674 -9.044716 -1.108900
					CHANNELS 3 Xrotation Yrotation Zrotation
					End Site
					{
						OFFSET -1.415958 20.635269 0.000000
					}
				}
			}
		}
	}
	JOINT newVegas:Spine
	{
		OFFSET 0.000000 10.199997 -0.299500
		CHANNELS 3 Xrotation Yrotation Zrotation
		JOINT newVegas:Spine1
		{
			OFFSET 0.000000 11.900002 -1.516600
			CHANNELS 3 Xrotation Yrotation Zrotation
			JOINT newVegas:Spine2
			{
				OFFSET 0.000000 13.600006 -2.842500
				CHANNELS 3 Xrotation Yrotation Zrotation
				JOINT newVegas:Neck
				{
					OFFSET 0.000000 9.624100 -2.890100
					CHANNELS 3 Xrotation Yrotation Zrotation
					JOINT newVegas:Head
					{
						OFFSET 0.000000 14.068802 -1.351900
						CHANNELS 3 Xrotation Yrotation Zrotation
						JOINT newVegas:Hair_Back
						{
							OFFSET 0.000000 3.231903 -17.524799
							CHANNELS 3 Xrotation Yrotation Zrotation
							End Site
							{
								OFFSET 0.000000 19.849884 0.000000
							}
						}
						JOINT newVegas:Hair_Front
						{
							OFFSET 0.000000 31.260406 4.573800
							CHANNELS 3 Xrotation Yrotation Zrotation
							JOINT newVegas:Hair_Front1
							{
								OFFSET 0.000000 2.284103 11.993300
								CHANNELS 3 Xrotation Yrotation Zrotation
								JOINT newVegas:Hair_Front2
								{
									OFFSET 0.000000 2.284103 11.993300
									CHANNELS 3 Xrotation Yrotation Zrotation
									End Site
									{
										OFFSET 0.000000 12.208862 0.000000
									}
								}
							}
						}
						JOINT newVegas:Jowel
						{
							OFFSET 0.000000 -7.458206 6.864100
							CHANNELS 3 Xrotation Yrotation Zrotation
							End Site
							{
								OFFSET 0.000000 19.849884 0.000000
							}
						}
					}
				}
				JOINT newVegas:LeftShoulder
				{
					OFFSET 15.263000 10.923401 -0.547700
					CHANNELS 3 Xrotation Yrotation Zrotation
					JOINT newVegas:LeftArm
					{
						OFFSET 25.438599 -2.830597 -13.032500
						CHANNELS 3 Xrotation Yrotation Zrotation
						JOINT newVegas:LeftForeArm
						{
							OFFSET 29.960503 0.000000 0.000000
							CHANNELS 3 Xrotation Yrotation Zrotation
							JOINT newVegas:LeftHand
							{
								OFFSET 27.849251 0.000000 0.000000
								CHANNELS 3 Xrotation Yrotation Zrotation
								JOINT newVegas:LeftHandThumb1
								{
									OFFSET 4.487587 -3.305161 6.305391
									CHANNELS 3 Xrotation Yrotation Zrotation
									JOINT newVegas:LeftHandThumb2
									{
										OFFSET 5.480453 -3.164139 3.164143
										CHANNELS 3 Xrotation Yrotation Zrotation
										JOINT newVegas:LeftHandThumb3
										{
											OFFSET 5.159721 -2.978973 2.978967
											CHANNELS 3 Xrotation Yrotation Zrotation
											End Site
											{
												OFFSET 2.494507 5.926697 1.738678
											}
										}
									}
								}
								JOINT newVegas:LeftHandIndex1
								{
									OFFSET 18.578728 -0.527832 5.208049
									CHANNELS 3 Xrotation Yrotation Zrotation
									JOINT newVegas:LeftHandIndex2
									{
										OFFSET 3.192009 0.000000 0.000000
										CHANNELS 3 Xrotation Yrotation Zrotation
										JOINT newVegas:LeftHandIndex3
										{
											OFFSET 3.835129 0.000000 0.000000
											CHANNELS 3 Xrotation Yrotation Zrotation
											End Site
											{
												OFFSET -0.034599 3.816971 0.371180
											}
										}
									}
								}
								JOINT newVegas:LeftHandMiddle1
								{
									OFFSET 18.476105 0.000000 0.000000
									CHANNELS 3 Xrotation Yrotation Zrotation
									JOINT newVegas:LeftHandMiddle2
									{
										OFFSET 3.324875 0.000000 0.000000
										CHANNELS 3 Xrotation Yrotation Zrotation
										JOINT newVegas:LeftHandMiddle3
										{
											OFFSET 4.596550 0.000000 0.000000
											CHANNELS 3 Xrotation Yrotation Zrotation
											End Site
											{
												OFFSET 0.057701 4.578827 0.399218
											}
										}
									}
								}
								JOINT newVegas:LeftHandRing1
								{
									OFFSET 17.732719 0.121887 -4.201567
									CHANNELS 3 Xrotation Yrotation Zrotation
									JOINT newVegas:LeftHandRing2
									{
										OFFSET 2.733170 0.000000 0.000000
										CHANNELS 3 Xrotation Yrotation Zrotation
										JOINT newVegas:LeftHandRing3
										{
											OFFSET 3.178268 0.000000 0.000000
											CHANNELS 3 Xrotation Yrotation Zrotation
											End Site
											{
												OFFSET 0.119102 3.170624 0.185394
											}
										}
									}
								}
								JOINT newVegas:LeftHandPinky1
								{
									OFFSET 15.989624 -0.606689 -7.535461
									CHANNELS 3 Xrotation Yrotation Zrotation
									JOINT newVegas:LeftHandPinky2
									{
										OFFSET 2.538986 0.000000 0.000000
										CHANNELS 3 Xrotation Yrotation Zrotation
										JOINT newVegas:LeftHandPinky3
										{
											OFFSET 2.593102 0.000000 0.000000
											CHANNELS 3 Xrotation Yrotation Zrotation
											End Site
											{
												OFFSET -0.150902 2.584198 0.152708
											}
										}
									}
								}
							}
							JOINT newVegas:Left_Sleeve
							{
								OFFSET 0.267448 -0.649796 0.577675
								CHANNELS 3 Xrotation Yrotation Zrotation
								End Site
								{
									OFFSET 0.000000 15.991241 0.000000
								}
							}
							JOINT newVegas:Left_CapeC
							{
								OFFSET 15.715958 -8.608795 -6.935905
								CHANNELS 3 Xrotation Yrotation Zrotation
								JOINT newVegas:Left_CapeC1
								{
									OFFSET 0.000000 -8.688499 0.000000
									CHANNELS 3 Xrotation Yrotation Zrotation
									End Site
									{
										OFFSET 0.000000 8.688499 0.000000
									}
								}
							}
						}
						JOINT newVegas:Left_CapeB
						{
							OFFSET 26.118385 -8.608795 -7.079235
							CHANNELS 3 Xrotation Yrotation Zrotation
							JOINT newVegas:Left_CapeB1
							{
								OFFSET 0.000000 -8.688499 0.000000
								CHANNELS 3 Xrotation Yrotation Zrotation
								End Site
								{
									OFFSET 0.000000 8.688499 0.000000
								}
							}
						}
						JOINT newVegas:Left_CapeA
						{
							OFFSET 5.115639 -8.608795 -10.395809
							CHANNELS 3 Xrotation Yrotation Zrotation
							JOINT newVegas:Left_CapeA1
							{
								OFFSET 0.000000 -8.688499 0.000000
								CHANNELS 3 Xrotation Yrotation Zrotation
								End Site
								{
									OFFSET 0.000000 8.688499 0.000000
								}
							}
						}
					}
				}
				JOINT newVegas:RightShoulder
				{
					OFFSET -15.263000 10.923401 -0.547700
					CHANNELS 3 Xrotation Yrotation Zrotation
					JOINT newVegas:RightArm
					{
						OFFSET -25.438599 -2.830597 -13.032500
						CHANNELS 3 Xrotation Yrotation Zrotation
						JOINT newVegas:RightForeArm
						{
							OFFSET -29.960503 0.000000 0.000000
							CHANNELS 3 Xrotation Yrotation Zrotation
							JOINT newVegas:RightHand
							{
								OFFSET -27.849251 0.000000 0.000000
								CHANNELS 3 Xrotation Yrotation Zrotation
								JOINT newVegas:RightHandThumb1
								{
									OFFSET -4.487587 -3.305161 6.305391
									CHANNELS 3 Xrotation Yrotation Zrotation
									JOINT newVegas:RightHandThumb2
									{
										OFFSET -5.480453 -3.164139 3.164143
										CHANNELS 3 Xrotation Yrotation Zrotation
										JOINT newVegas:RightHandThumb3
										{
											OFFSET -5.159721 -2.978973 2.978967
											CHANNELS 3 Xrotation Yrotation Zrotation
											End Site
											{
												OFFSET -2.494507 5.926697 1.738678
											}
										}
									}
								}
								JOINT newVegas:RightHandIndex1
								{
									OFFSET -18.578728 -0.527832 5.208049
									CHANNELS 3 Xrotation Yrotation Zrotation
									JOINT newVegas:RightHandIndex2
									{
										OFFSET -3.192009 0.000000 0.000000
										CHANNELS 3 Xrotation Yrotation Zrotation
										JOINT newVegas:RightHandIndex3
										{
											OFFSET -3.835129 0.000000 0.000000
											CHANNELS 3 Xrotation Yrotation Zrotation
											End Site
											{
												OFFSET 0.034599 3.816971 0.371180
											}
										}
									}
								}
								JOINT newVegas:RightHandMiddle1
								{
									OFFSET -18.476105 0.000000 0.000000
									CHANNELS 3 Xrotation Yrotation Zrotation
									JOINT newVegas:RightHandMiddle2
									{
										OFFSET -3.324875 0.000000 0.000000
										CHANNELS 3 Xrotation Yrotation Zrotation
										JOINT newVegas:RightHandMiddle3
										{
											OFFSET -4.596550 0.000000 0.000000
											CHANNELS 3 Xrotation Yrotation Zrotation
											End Site
											{
												OFFSET -0.057701 4.578827 0.399218
											}
										}
									}
								}
								JOINT newVegas:RightHandRing1
								{
									OFFSET -17.732719 0.121887 -4.201567
									CHANNELS 3 Xrotation Yrotation Zrotation
									JOINT newVegas:RightHandRing2
									{
										OFFSET -2.733170 0.000000 0.000000
										CHANNELS 3 Xrotation Yrotation Zrotation
										JOINT newVegas:RightHandRing3
										{
											OFFSET -3.178268 0.000000 0.000000
											CHANNELS 3 Xrotation Yrotation Zrotation
											End Site
											{
												OFFSET -0.119102 3.170624 0.185394
											}
										}
									}
								}
								JOINT newVegas:RightHandPinky1
								{
									OFFSET -15.989624 -0.606689 -7.535461
									CHANNELS 3 Xrotation Yrotation Zrotation
									JOINT newVegas:RightHandPinky2
									{
										OFFSET -2.538986 0.000000 0.000000
										CHANNELS 3 Xrotation Yrotation Zrotation
										JOINT newVegas:RightHandPinky3
										{
											OFFSET -2.593102 0.000000 0.000000
											CHANNELS 3 Xrotation Yrotation Zrotation
											End Site
											{
												OFFSET 0.150902 2.584198 0.152708
											}
										}
									}
								}
							}
							JOINT newVegas:Right_CapeC
							{
								OFFSET -15.715958 -8.608795 -6.935905
								CHANNELS 3 Xrotation Yrotation Zrotation
								JOINT newVegas:Right_CapeC1
								{
									OFFSET 0.000000 -8.688499 0.000000
									CHANNELS 3 Xrotation Yrotation Zrotation
									End Site
									{
										OFFSET 0.000000 8.688499 0.000000
									}
								}
							}
							JOINT newVegas:Right_Sleeve
							{
								OFFSET -0.267448 -0.649994 0.577675
								CHANNELS 3 Xrotation Yrotation Zrotation
								End Site
								{
									OFFSET 0.000000 15.991302 0.000000
								}
							}
						}
						JOINT newVegas:Right_CapeA
						{
							OFFSET -5.115540 -8.608795 -10.395824
							CHANNELS 3 Xrotation Yrotation Zrotation
							JOINT newVegas:Right_CapeA1
							{
								OFFSET 0.000000 -8.688499 0.000000
								CHANNELS 3 Xrotation Yrotation Zrotation
								End Site
								{
									OFFSET 0.000000 8.688499 0.000000
								}
							}
						}
						JOINT newVegas:Right_CapeB
						{
							OFFSET -26.118187 -8.608795 -7.079266
							CHANNELS 3 Xrotation Yrotation Zrotation
							JOINT newVegas:Right_CapeB1
							{
								OFFSET 0.000000 -8.688499 0.000000
								CHANNELS 3 Xrotation Yrotation Zrotation
								End Site
								{
									OFFSET 0.000000 8.688499 0.000000
								}
							}
						}
					}
				}
				JOINT newVegas:Left_Collar
				{
					OFFSET 18.625099 8.655502 8.828100
					CHANNELS 3 Xrotation Yrotation Zrotation
					JOINT newVegas:Left_Collar1
					{
						OFFSET 14.783401 10.540405 -1.259500
						CHANNELS 3 Xrotation Yrotation Zrotation
						End Site
						{
							OFFSET 0.000000 18.199875 0.000000
						}
					}
				}
				JOINT newVegas:Collar_Back
				{
					OFFSET 0.000000 15.630707 -20.132601
					CHANNELS 3 Xrotation Yrotation Zrotation
					End Site
					{
						OFFSET 0.000000 22.523010 0.000000
					}
				}
				JOINT newVegas:Left_Peck
				{
					OFFSET 17.239599 -5.132599 25.482599
					CHANNELS 3 Xrotation Yrotation Zrotation
					End Site
					{
						OFFSET 0.000000 22.523010 0.000000
					}
				}
				JOINT newVegas:Right_Peck
				{
					OFFSET -17.239599 -5.132202 25.482599
					CHANNELS 3 Xrotation Yrotation Zrotation
					End Site
					{
						OFFSET 0.000000 22.523010 0.000000
					}
				}
				JOINT newVegas:Right_Collar
				{
					OFFSET -18.625099 8.655792 8.828100
					CHANNELS 3 Xrotation Yrotation Zrotation
					JOINT newVegas:Right_Collar1
					{
						OFFSET -14.783401 10.539993 -1.259500
						CHANNELS 3 Xrotation Yrotation Zrotation
						End Site
						{
							OFFSET 0.000000 18.199631 0.000000
						}
					}
				}
			}
		}
		JOINT newVegas:Belly
		{
			OFFSET 0.000000 -6.540398 9.014299
			CHANNELS 3 Xrotation Yrotation Zrotation
			End Site
			{
				OFFSET 0.000000 11.566666 0.000000
			}
		}
	}
	JOINT newVegas:ElvisFacialAnim_Joint
	{
		OFFSET 1.000000 -95.330101 -8.825800
		CHANNELS 3 Xrotation Yrotation Zrotation
		End Site
		{
			OFFSET 0.000000 35.315800 0.000000
		}
	}
}
MOTION
Frames: 4
Frame Time: 0.033333
4.972501 91.433067 -61.153210 -0.804147 -14.372395 1.725831 0.000000 -0.000001 -0.000000 8.753917 4.768480 -7.058103 18.574493 8.934080 -0.332825 -22.127854 0.295877 1.423836 -0.000001 0.000000 -0.000000 -0.000001 0.000000 0.000001 -36.350287 -7.359233 -1.480249 21.748357 -8.648783 1.241020 3.458604 -14.221251 -8.878180 -0.000000 -0.000001 0.000000 0.000000 0.000003 0.000000 1.593291 -0.933000 1.465850 5.315727 -1.670152 1.556791 5.317483 -1.720971 1.493476 -0.007813 0.638129 1.583873 -0.007818 0.638126 1.583868 -0.000000 0.000001 0.000000 -0.007887 0.638124 1.583873 -0.007743 0.638124 1.583871 0.000001 0.000001 -0.000001 -0.000000 0.000001 -0.000000 0.634104 -2.242332 -13.982299 -30.759839 -29.973489 -74.140399 -0.000003 -15.134079 -0.000020 31.033214 31.545553 -8.883956 -41.976860 7.353235 -11.296015 35.928305 14.605094 27.245923 -0.000001 0.000001 -0.000001 -9.260441 -14.105457 -29.129097 0.412064 2.160112 -21.596814 0.000001 0.000002 -0.000002 -5.716599 6.446998 -80.916363 6.681871 5.791950 -98.177207 -0.000005 -0.000002 -0.000001 7.737002 7.913948 -109.390725 4.135834 5.594830 -72.925377 0.000000 0.000001 0.000000 10.061435 6.711252 -120.506872 2.405451 4.731757 -53.874613 0.000001 0.000003 0.000001 -0.000002 0.000000 0.000002 -0.000002 0.000000 0.000002 -0.000002 0.000000 0.000002 0.000000 0.000000 -0.000002 0.000000 -0.000001 -0.000002 0.000000 0.000000 -0.000002 -0.000002 0.000001 -0.000002 0.622552 2.618186 14.336586 15.528556 5.660908 59.381125 0.000013 40.686846 -0.000030 -6.663583 -14.922058 -16.605865 6.862513 22.877536 6.184166 -11.151108 -45.740199 -10.512511 0.000002 -0.000003 -0.000003 -5.436458 1.007494 46.421118 2.250650 -3.988387 58.858568 -0.000000 0.000001 0.000000 -3.841649 -1.784592 53.804054 4.470305 -4.653416 87.698058 -0.000000 -0.000000 -0.000005 2.426004 -6.342389 58.256896 2.346370 -4.044530 60.225063 -0.000001 -0.000001 -0.000000 1.435776 -5.867332 64.029602 2.194463 -3.953964 58.047380 -0.000000 -0.000000 0.000001 -0.000000 0.000000 0.000000 0.000000 0.000001 0.000000 -0.000000 -0.000000 0.000001 0.000000 0.000001 -0.000000 0.000000 0.000002 -0.000000 0.000000 0.000001 -0.000000 0.000000 0.000002 -0.000001 0.000000 0.000000 0.000000 0.000000 0.000000 0.000000 0.000000 0.000000 0.000000 0.000000 0.000000 0.000000 0.000000 0.000000 0.000000 0.000000 0.000000 0.000000 0.000000 0.000000 0.000000 0.000000 0.000002 0.000000 0.000000 -0.000001 -0.000000 
6.085545 91.509468 -63.386528 -1.237978 -13.211092 2.272606 -0.000000 0.000001 0.000000 7.042200 3.766736 -8.244142 18.984955 9.154348 -0.361326 -22.071930 -0.094825 2.818648 -0.000000 0.000000 -0.000000 -0.000004 -0.000000 -0.000000 -37.638266 -7.312284 -2.929851 24.391418 -8.296868 1.278485 -0.226897 -14.556837 -9.570414 0.000000 0.000003 0.000001 -0.000000 0.000001 -0.000001 1.660842 -0.716870 1.137410 5.519661 -1.324430 0.679832 5.518697 -1.351556 0.629223 -0.070194 0.517119 1.252971 -0.070199 0.517126 1.252964 -0.000000 0.000000 -0.000000 -0.070272 0.517124 1.252966 -0.070124 0.517119 1.252970 -0.000001 0.000001 -0.000000 -0.000000 0.000000 0.000000 0.629371 -2.481980 -14.485885 -27.907156 -30.366721 -71.964560 -0.000006 -16.508036 -0.000005 30.138008 32.169904 -8.920541 -42.120356 7.156435 -11.533704 35.958774 14.598252 27.286568 -0.000000 0.000001 -0.000001 -9.542435 -15.012705 -28.795938 0.409526 2.153722 -21.529735 -0.000000 -0.000002 -0.000001 -5.668003 6.448190 -80.882923 6.654047 5.795869 -97.901602 -0.000001 0.000001 -0.000001 7.734394 7.914715 -109.337491 4.138233 5.595561 -72.949952 0.000000 -0.000004 0.000003 10.054353 6.715384 -120.506913 2.383493 4.715701 -53.607846 0.000003 0.000000 -0.000000 0.000003 0.000003 0.000001 0.000003 0.000003 0.000001 0.000003 0.000003 0.000001 -0.000001 -0.000001 -0.000000 -0.000001 -0.000002 -0.000002 -0.000001 -0.000001 -0.000000 -0.000002 0.000000 -0.000001 0.619942 2.664834 14.234111 13.168394 5.788578 60.344701 0.000002 39.872906 -0.000004 -5.706384 -14.378641 -16.755403 6.867873 22.821694 6.172516 -11.152014 -45.716898 -10.523766 0.000000 -0.000001 -0.000000 -5.440749 1.025632 46.362163 2.239951 -3.981918 58.704629 0.000001 0.000000 0.000000 -3.850508 -1.767520 53.737330 4.460239 -4.653003 87.573919 -0.000000 -0.000000 -0.000004 2.422228 -6.340319 58.193485 2.343277 -4.042763 60.181172 0.000000 -0.000003 0.000000 1.416847 -5.854712 63.901228 2.191499 -3.952119 58.004255 -0.000000 0.000003 0.000001 0.000000 0.000001 -0.000000 0.000000 0.000000 -0.000000 0.000000 0.000000 0.000000 -0.000000 0.000003 0.000000 -0.000000 0.000003 0.000000 -0.000000 0.000003 0.000000 -0.000000 0.000003 -0.000000 -0.000000 -0.000000 0.000001 -0.000000 -0.000000 0.000001 -0.000000 -0.000000 0.000001 -0.000000 -0.000000 0.000001 -0.000000 -0.000000 0.000001 -0.000000 -0.000000 0.000001 -0.000000 -0.000000 0.000001 0.000000 0.000000 -0.000000 -0.000000 0.000001 0.000000 
7.131350 91.646996 -65.562019 -1.679920 -12.260856 2.784850 -0.000000 -0.000000 0.000000 4.717861 3.147770 -8.802139 20.229714 8.819283 -0.533328 -21.094776 -0.081960 2.816340 -0.000000 -0.000000 0.000000 -0.000003 0.000000 0.000001 -38.584709 -7.250661 -4.556956 26.352869 -8.063293 1.316555 -2.073295 -13.946696 -8.902670 0.000001 0.000001 0.000001 0.000002 -0.000001 0.000001 1.731678 -0.506647 0.814679 5.740586 -0.991232 -0.111114 5.738860 -0.994375 -0.148996 -0.058532 0.417931 0.914780 -0.058527 0.417933 0.914779 0.000000 0.000001 -0.000000 -0.058532 0.417929 0.914778 -0.058462 0.417915 0.914780 -0.000000 -0.000001 -0.000001 0.000000 0.000001 0.000000 0.626582 -2.651871 -15.105590 -25.341037 -29.497938 -70.131850 0.000006 -17.069450 0.000003 29.030363 32.567995 -8.092284 -42.359214 6.983916 -11.926922 35.979002 14.597981 27.294141 -0.000000 -0.000005 -0.000005 -9.836997 -15.979193 -28.466347 0.405889 2.144486 -21.432662 0.000005 -0.000000 0.000001 -5.672093 6.427512 -80.778892 6.617375 5.800813 -97.538735 -0.000003 0.000001 0.000000 7.718067 7.920097 -109.220845 4.139167 5.595860 -72.959623 -0.000002 -0.000001 0.000001 10.005766 6.743806 -120.507268 2.346137 4.688049 -53.152232 0.000003 -0.000002 -0.000001 -0.000002 0.000002 -0.000003 -0.000002 0.000002 -0.000003 -0.000003 0.000002 -0.000003 -0.000000 0.000001 -0.000001 -0.000000 0.000001 -0.000001 -0.000000 0.000001 -0.000001 -0.000002 0.000002 -0.000001 0.622986 2.550122 14.041441 10.824242 6.550986 61.090114 0.000004 38.700105 -0.000006 -5.496319 -13.451784 -16.932217 6.982684 22.887576 6.407477 -11.274972 -45.665822 -10.687988 0.000001 0.000000 -0.000002 -5.434376 1.020502 46.357317 2.220547 -3.970090 58.424776 0.000001 0.000001 0.000000 -3.835271 -1.757390 53.600620 4.441282 -4.652162 87.340245 0.000001 -0.000000 -0.000004 2.422714 -6.341226 58.048917 2.336568 -4.038926 60.086028 -0.000000 0.000001 -0.000001 1.429457 -5.854107 63.645158 2.185335 -3.948269 57.915039 0.000000 -0.000002 0.000001 0.000000 0.000001 0.000000 0.000000 0.000001 0.000000 0.000000 0.000001 0.000000 0.000000 0.000001 -0.000000 0.000000 0.000001 -0.000000 0.000000 0.000001 -0.000000 0.000000 0.000001 -0.000000 0.000000 0.000000 -0.000000 0.000000 0.000000 -0.000000 0.000000 0.000000 -0.000000 0.000000 0.000000 -0.000000 0.000000 0.000000 -0.000000 0.000000 0.000000 -0.000000 0.000000 0.000000 -0.000000 -0.000000 -0.000000 -0.000000 -0.000000 -0.000000 0.000000 
8.068879 91.836960 -67.665154 -2.105575 -11.484501 3.182569 -0.000000 0.000001 0.000000 3.297437 2.973216 -9.375736 20.138246 8.353291 -0.701587 -19.894063 -0.241002 3.314629 0.000000 -0.000000 0.000000 -0.000001 0.000000 0.000001 -39.043373 -7.274225 -6.224131 26.972076 -7.642359 1.309743 -1.855522 -12.898275 -7.028571 0.000000 -0.000002 0.000000 0.000001 0.000001 -0.000002 1.858756 -0.285943 0.545137 6.058292 -0.629714 -0.740171 6.057311 -0.610997 -0.763524 0.023974 0.334294 0.650612 0.023978 0.334292 0.650614 0.000001 0.000001 -0.000000 0.023977 0.334292 0.650612 0.023976 0.334300 0.650612 0.000001 -0.000000 -0.000000 0.000001 0.000001 -0.000000 0.628278 -2.682965 -15.575019 -23.520269 -27.190444 -69.174209 -0.000020 -16.840723 -0.000023 28.224821 32.680703 -6.512807 -42.603223 6.879079 -12.317746 36.088585 14.619381 27.231129 0.000002 0.000001 -0.000003 -10.124533 -16.959242 -28.144880 0.394396 2.115002 -21.123496 -0.000001 -0.000002 0.000001 -5.728069 6.359783 -80.475242 6.568972 5.806992 -97.060007 0.000001 0.000001 -0.000004 7.677066 7.933413 -108.939810 4.125452 5.591661 -72.818928 -0.000001 -0.000001 0.000001 9.982648 6.757341 -120.507418 2.278712 4.636912 -52.322650 0.000002 -0.000005 0.000001 0.000004 0.000001 0.000000 0.000004 0.000001 0.000000 0.000003 0.000001 0.000000 -0.000001 0.000001 0.000000 -0.000001 0.000000 0.000000 -0.000001 0.000001 0.000000 -0.000003 0.000002 0.000001 0.624032 2.472459 13.817777 8.661270 7.733263 61.476477 0.000004 37.391051 -0.000019 -5.515369 -12.582794 -16.871460 7.141197 23.017749 6.753850 -11.467823 -45.581510 -10.935400 0.000001 -0.000000 -0.000001 -5.425748 1.001188 46.403226 2.197214 -3.955687 58.087214 -0.000000 0.000001 -0.000001 -3.812037 -1.751272 53.450793 4.417747 -4.651013 87.049996 0.000001 0.000001 0.000003 2.423679 -6.342588 57.878005 2.328674 -4.034377 59.973856 -0.000000 -0.000001 0.000000 1.447110 -5.855330 63.354984 2.178698 -3.944113 57.818576 -0.000000 0.000003 0.000000 0.000001 0.000002 0.000000 0.000000 0.000001 0.000000 0.000001 0.000001 0.000001 -0.000000 0.000001 -0.000001 -0.000000 0.000001 -0.000000 -0.000000 0.000001 -0.000001 -0.000000 0.000001 -0.000001 0.000001 -0.000000 0.000000 0.000001 -0.000000 0.000000 0.000001 -0.000000 0.000000 0.000001 -0.000000 0.000000 0.000001 -0.000000 0.000000 0.000001 -0.000000 0.000000 0.000001 -0.000000 0.000000 -0.000000 0.000001 0.000000 -0.000000 0.000001 0.000000 
